#!OML:ASF Y:\EmotionMaleHayes\Project 1\Capture day 1\Session 1\Male1.ASF
:FULLY-SPECIFIED
:DEGREES
1316
root 37.6628 17.4259 -1.16093 517.178 106.914 510.19
lowerback 5.44361 4.08236 -5.70216
upperback 5.78804 5.5166 -3.06859
thorax 2.74344 2.70459 -0.166335
lowerneck -23.5763 2.08804 7.06599
upperneck 39.2182 0.724375 1.28415
head 19.0259 1.92019 -0.339569
rclavicle 7.15625e-015 1.11319e-014
rhumerus 30.9029 23.7046 -55.3087
rradius 38.0925
rwrist 2.60917
rhand -4.41475 -27.0327
rfingers 7.12502
rthumb 21.3556 -55.876
lclavicle 7.15625e-015 1.11319e-014
lhumerus 32.9386 -20.6949 36.8188
lradius 38.7994
lwrist -2.75547
lhand 0.154286 -26.2254
lfingers 7.12502
lthumb 25.7381 2.054
rfemur 10.7905 1.34036 10.5101
rtibia 17.7637
rfoot 3.63841 -2.83223
rtoes 21.9982
lfemur -9.67882 3.45718 -8.49989
ltibia 12.932
lfoot -10.7272 9.4763
ltoes -8.86924
1317
root 37.7109 17.4282 -1.17722 515.051 107.08 507.954
lowerback 5.39929 4.00379 -5.06444
upperback 5.82084 5.43152 -2.94284
thorax 2.8444 2.67813 -0.376579
lowerneck -23.6689 2.00973 6.84538
upperneck 39.2647 0.566129 1.58144
head 19.0715 1.87169 -0.191164
rclavicle -2.8625e-014 -7.95139e-015
rhumerus 30.9228 23.7444 -55.3244
rradius 38.3028
rwrist 2.7522
rhand -4.07864 -28.1213
rfingers 7.12502
rthumb 21.6784 -56.9276
lclavicle -2.8625e-014 -7.95139e-015
lhumerus 32.9009 -20.6563 36.9077
lradius 38.751
lwrist -2.82865
lhand 0.169458 -26.1923
lfingers 7.12502
lthumb 25.7527 2.08503
rfemur 10.5789 0.733493 11.2681
rtibia 17.6879
rfoot 3.18986 -3.09405
rtoes 21.0756
lfemur -9.5333 3.53833 -7.81169
ltibia 12.9168
lfoot -10.8213 9.26691
ltoes -9.0985
1318
root 37.7567 17.4336 -1.19053 516.145 106.856 509.118
lowerback 5.37944 3.98674 -5.63431
upperback 5.86397 5.40472 -3.05918
thorax 2.86744 2.64837 -0.180786
lowerneck -23.5207 2.04427 6.88994
upperneck 39.2633 0.652048 1.51404
head 19.0337 1.90199 -0.213765
rclavicle 4.6118e-014 1.74931e-014
rhumerus 30.8565 23.7703 -55.3453
rradius 38.4677
rwrist 2.80192
rhand -4.01156 -28.4413
rfingers 7.12502
rthumb 21.7429 -57.2402
lclavicle 4.6118e-014 1.74931e-014
lhumerus 32.8751 -20.5593 37.0541
lradius 38.6474
lwrist -2.94977
lhand 0.256704 -26.2171
lfingers 7.12502
lthumb 25.8362 2.04809
rfemur 10.3917 0.145683 10.6854
rtibia 17.6327
rfoot 2.75765 -3.27048
rtoes 20.7771
lfemur -9.28143 3.39371 -8.42293
ltibia 12.7429
lfoot -10.8992 9.26285
ltoes -8.97446
1319
root 37.7955 17.4409 -1.2032 516.977 106.708 510.175
lowerback 5.51505 3.99577 -6.14154
upperback 5.97181 5.40833 -3.15575
thorax 2.8754 2.63671 -0.0097652
lowerneck -23.448 1.99746 6.87741
upperneck 39.154 0.591116 1.49818
head 18.9453 1.86826 -0.237081
rclavicle 4.05521e-014 -6.52014e-014
rhumerus 30.9124 23.7904 -55.2721
rradius 38.5308
rwrist 2.83169
rhand -4.08948 -28.3965
rfingers 7.12502
rthumb 21.668 -57.204
lclavicle 4.05521e-014 -6.52014e-014
lhumerus 32.9029 -20.4997 37.0557
lradius 38.59
lwrist -2.84521
lhand 0.231138 -26.1852
lfingers 7.12502
lthumb 25.8117 2.08353
rfemur 10.2712 -0.132427 10.3023
rtibia 17.6519
rfoot 1.93798 -3.51692
rtoes 20.669
lfemur -8.89356 3.17789 -8.87013
ltibia 12.5808
lfoot -11.0628 9.30172
ltoes -7.79621
1320
root 37.8259 17.4463 -1.21151 517.248 106.719 510.445
lowerback 5.62187 4.02041 -6.34605
upperback 5.94579 5.4271 -3.2442
thorax 2.78087 2.64442 0.000464403
lowerneck -23.3648 1.96439 6.92292
upperneck 39.1342 0.522576 1.51534
head 18.9096 1.85092 -0.253526
rclavicle 7.15625e-015 -4.45278e-014
rhumerus 30.9467 23.9079 -55.1382
rradius 38.6034
rwrist 2.75516
rhand -4.15365 -28.3691
rfingers 7.12502
rthumb 21.6064 -57.1837
lclavicle 7.15625e-015 -4.45278e-014
lhumerus 32.9359 -20.5235 37.0214
lradius 38.5503
lwrist -2.77864
lhand 0.183284 -26.117
lfingers 7.12502
lthumb 25.7659 2.15841
rfemur 9.85748 -0.406353 10.3103
rtibia 17.8031
rfoot 1.13552 -3.4337
rtoes 19.9679
lfemur -8.78057 3.26224 -8.96393
ltibia 12.5581
lfoot -11.0868 9.21125
ltoes -7.55761
1321
root 37.8707 17.4503 -1.22066 517.734 106.632 510.91
lowerback 5.4813 4.01751 -6.64358
upperback 5.99529 5.4362 -3.30196
thorax 2.89357 2.63719 0.115492
lowerneck -23.5403 1.72589 6.39341
upperneck 39.1287 0.11027 2.11344
head 18.9383 1.69959 0.0354885
rclavicle 2.54444e-014 -1.11319e-014
rhumerus 31.0408 23.9574 -54.9283
rradius 38.708
rwrist 2.5506
rhand -4.00752 -28.4148
rfingers 7.12502
rthumb 21.7467 -57.2132
lclavicle 2.54444e-014 -1.11319e-014
lhumerus 32.9952 -20.3139 37.3155
lradius 38.3569
lwrist -3.08215
lhand 0.258836 -26.1931
lfingers 7.12502
lthumb 25.8383 2.07185
rfemur 9.63798 -0.726944 10.148
rtibia 17.4701
rfoot 1.32043 -3.41387
rtoes 19.7012
lfemur -8.5954 3.28975 -9.25074
ltibia 12.4591
lfoot -11.1257 9.12116
ltoes -7.79637
1322
root 37.9149 17.453 -1.22685 517.241 106.629 510.431
lowerback 5.45168 4.02051 -6.68076
upperback 6.0204 5.44264 -3.25382
thorax 2.9284 2.63655 0.18822
lowerneck -23.4273 1.71748 6.43811
upperneck 39.1861 0.146811 2.00159
head 18.9422 1.70705 -0.0174965
rclavicle 1.59028e-014 -6.83819e-014
rhumerus 30.8351 23.7622 -55.0916
rradius 38.8244
rwrist 2.78008
rhand -3.84926 -28.351
rfingers 7.12502
rthumb 21.8987 -57.1317
lclavicle 1.59028e-014 -6.83819e-014
lhumerus 33.0315 -20.2463 37.5506
lradius 38.195
lwrist -3.33568
lhand 0.124949 -26.2276
lfingers 7.12502
lthumb 25.71 2.05593
rfemur 9.65091 -0.935232 10.3976
rtibia 16.9028
rfoot 0.93269 -3.19773
rtoes 18.4064
lfemur -8.36966 3.34731 -9.15256
ltibia 12.44
lfoot -11.2775 8.98518
ltoes -7.48196
1323
root 37.9593 17.4562 -1.23636 515.825 106.689 509.053
lowerback 5.52758 3.99584 -6.39028
upperback 6.0274 5.40689 -3.14801
thorax 2.90698 2.62658 0.134955
lowerneck -23.4413 1.5932 6.25569
upperneck 39.227 -0.027803 2.15365
head 18.965 1.63667 0.0496632
rclavicle -1.59028e-014 -3.18055e-015
rhumerus 30.6089 23.6971 -55.1747
rradius 38.9281
rwrist 2.92008
rhand -4.01857 -28.232
rfingers 7.12502
rthumb 21.7361 -57.0316
lclavicle -1.59028e-014 -3.18055e-015
lhumerus 33.0016 -20.2751 37.6677
lradius 38.1478
lwrist -3.38224
lhand -0.0816502 -26.1719
lfingers 7.12502
lthumb 25.5122 2.14011
rfemur 9.37239 -1.06516 11.0103
rtibia 16.9291
rfoot 0.581715 -3.04913
rtoes 18.7039
lfemur -8.11073 3.37899 -8.7473
ltibia 12.4229
lfoot -11.388 8.76051
ltoes -6.81135
1324
root 37.9987 17.4595 -1.24658 515.289 106.529 508.524
lowerback 5.52441 3.94013 -6.34663
upperback 6.09425 5.34398 -3.17292
thorax 2.98815 2.59614 0.0913572
lowerneck -23.37 1.54804 5.9566
upperneck 39.103 -0.12151 2.54042
head 18.8711 1.60773 0.262606
rclavicle 1.11319e-014 4.77083e-015
rhumerus 30.6607 23.7254 -54.9813
rradius 38.9551
rwrist 2.70308
rhand -4.32178 -28.1239
rfingers 7.12502
rthumb 21.4449 -56.9569
lclavicle 1.11319e-014 4.77083e-015
lhumerus 33.0541 -20.0893 37.8589
lradius 38.1561
lwrist -3.4818
lhand 0.116929 -26.1054
lfingers 7.12502
lthumb 25.7024 2.17919
rfemur 9.13019 -1.32606 11.1961
rtibia 16.7236
rfoot 0.621542 -2.93293
rtoes 19.7467
lfemur -8.03144 3.40785 -8.75345
ltibia 12.493
lfoot -11.4313 8.43856
ltoes -6.51425
1325
root 38.0369 17.4646 -1.25001 515.417 106.396 508.748
lowerback 5.58209 3.91736 -6.63013
upperback 6.12874 5.30728 -3.21522
thorax 2.97702 2.56983 0.200721
lowerneck -23.5528 1.40573 5.77516
upperneck 39.2644 -0.353522 2.72281
head 19.0142 1.5248 0.337609
rclavicle -3.97569e-014 1.43125e-014
rhumerus 30.7393 23.8843 -54.8072
rradius 38.9562
rwrist 2.59201
rhand -4.43322 -28.0031
rfingers 7.12502
rthumb 21.3379 -56.8483
lclavicle -3.97569e-014 1.43125e-014
lhumerus 32.9098 -19.8745 38.1552
lradius 38.2398
lwrist -3.6664
lhand 0.438041 -25.9951
lfingers 7.12502
lthumb 26.0099 2.24468
rfemur 8.97774 -1.25272 11.2642
rtibia 16.2981
rfoot -0.183242 -2.68688
rtoes 16.9018
lfemur -7.84165 3.44112 -8.9039
ltibia 12.5197
lfoot -11.4935 8.27319
ltoes -6.84614
1326
root 38.0815 17.466 -1.25071 515.066 106.35 508.503
lowerback 5.50966 3.91027 -6.69205
upperback 6.22002 5.31648 -3.25817
thorax 3.11323 2.57032 0.199104
lowerneck -23.6858 1.27503 5.59917
upperneck 39.3423 -0.621028 3.03224
head 19.0985 1.44544 0.462409
rclavicle 7.15625e-015 -7.95139e-015
rhumerus 30.8137 23.881 -54.733
rradius 38.9735
rwrist 2.52238
rhand -4.47395 -28.0716
rfingers 7.12502
rthumb 21.2988 -56.9212
lclavicle 7.15625e-015 -7.95139e-015
lhumerus 33.2639 -20.0518 37.8384
lradius 38.0653
lwrist -3.29071
lhand 0.345655 -25.8495
lfingers 7.12502
lthumb 25.9214 2.40331
rfemur 8.88002 -1.29348 11.4852
rtibia 16.1048
rfoot -0.792029 -2.19363
rtoes 14.9641
lfemur -7.50751 3.41375 -8.8667
ltibia 12.4152
lfoot -11.601 8.1469
ltoes -7.13344
1327
root 38.1275 17.4679 -1.25574 514.564 106.339 508.05
lowerback 5.53923 3.90027 -6.63995
upperback 6.18201 5.29954 -3.29253
thorax 3.06476 2.56639 0.132379
lowerneck -23.635 1.32671 5.96074
upperneck 39.6067 -0.506134 2.62576
head 19.2435 1.49774 0.236723
rclavicle -9.70069e-014 6.99722e-014
rhumerus 30.6213 23.8051 -54.892
rradius 39.0488
rwrist 2.62873
rhand -4.42382 -28.2392
rfingers 7.12502
rthumb 21.3469 -57.0834
lclavicle -9.70069e-014 6.99722e-014
lhumerus 33.3417 -20.1207 37.8471
lradius 37.9171
lwrist -3.36356
lhand 0.264302 -25.9164
lfingers 7.12502
lthumb 25.8435 2.34769
rfemur 8.63473 -1.33027 11.7699
rtibia 15.8907
rfoot -1.09627 -1.72168
rtoes 13.59
lfemur -7.20768 3.34617 -8.79307
ltibia 12.2881
lfoot -11.7254 8.07086
ltoes -7.27449
1328
root 38.1626 17.4731 -1.26096 514.241 106.309 507.755
lowerback 5.5733 3.85961 -6.77233
upperback 6.16766 5.23572 -3.26445
thorax 3.02101 2.52995 0.232818
lowerneck -23.5469 1.33162 5.91615
upperneck 39.5655 -0.517186 2.73904
head 19.1959 1.50188 0.294934
rclavicle 0 3.18055e-014
rhumerus 30.626 23.7805 -54.9426
rradius 39.0369
rwrist 2.75425
rhand -4.20962 -28.259
rfingers 7.12502
rthumb 21.5527 -57.0797
lclavicle 0 3.18055e-014
lhumerus 33.239 -19.9318 38.0823
lradius 37.7907
lwrist -3.72935
lhand 0.251631 -26.1405
lfingers 7.12502
lthumb 25.8314 2.12538
rfemur 8.23868 -1.21293 12.0884
rtibia 15.7072
rfoot -1.40456 -1.62951
rtoes 12.9491
lfemur -7.05158 3.33825 -8.75437
ltibia 12.2614
lfoot -11.7511 8.08214
ltoes -7.5733
1329
root 38.197 17.4757 -1.26544 513.659 106.262 507.196
lowerback 5.69022 3.80826 -6.79645
upperback 6.10606 5.1479 -3.2461
thorax 2.89162 2.48845 0.25755
lowerneck -23.4429 1.35934 6.13951
upperneck 39.7107 -0.427021 2.44813
head 19.2549 1.53468 0.138382
rclavicle 4.37326e-014 -6.36111e-014
rhumerus 30.5793 23.9117 -54.9368
rradius 39.0298
rwrist 2.55545
rhand -4.34397 -28.2347
rfingers 7.12502
rthumb 21.4236 -57.0702
lclavicle 4.37326e-014 -6.36111e-014
lhumerus 33.0487 -19.8692 38.2533
lradius 37.7929
lwrist -3.83291
lhand 0.212854 -26.1992
lfingers 7.12502
lthumb 25.7942 2.0721
rfemur 7.91271 -1.22202 12.4534
rtibia 15.4586
rfoot -1.76975 -1.60823
rtoes 12.0089
lfemur -6.89251 3.30595 -8.662
ltibia 12.2104
lfoot -11.686 8.07896
ltoes -7.27967
1330
root 38.2396 17.4779 -1.2698 512.994 106.206 506.552
lowerback 5.62191 3.75425 -6.68714
upperback 6.11488 5.0886 -3.27324
thorax 2.95237 2.46201 0.178096
lowerneck -23.4059 1.27309 5.9864
upperneck 39.6579 -0.611343 2.73071
head 19.2132 1.48076 0.259243
rclavicle -3.26007e-014 5.24792e-014
rhumerus 30.4928 23.9256 -54.9483
rradius 39.0703
rwrist 2.44494
rhand -4.51453 -27.9503
rfingers 7.12502
rthumb 21.2598 -56.8044
lclavicle -3.26007e-014 5.24792e-014
lhumerus 32.9679 -19.8394 38.3107
lradius 37.8813
lwrist -3.697
lhand 0.396108 -26.0274
lfingers 7.12502
lthumb 25.9697 2.21827
rfemur 7.66 -1.29354 12.7897
rtibia 15.1338
rfoot -2.111 -1.50385
rtoes 10.6529
lfemur -6.67821 3.19571 -8.55998
ltibia 12.1367
lfoot -11.7389 7.98999
ltoes -6.20889
